<svg width="59" height="51" viewBox="0 0 59 51" fill="none" xmlns="http://www.w3.org/2000/svg">
<path opacity="0.2" fill-rule="evenodd" clip-rule="evenodd" d="M17.9768 9.74001C14.247 10.709 11 13.7724 11 19.5864C11 27.2024 16.882 35.1244 31.4 42.9546C45.918 35.121 51.8 27.2024 51.8 19.5864C51.8 13.7724 48.553 10.7124 44.8232 9.74001C40.8316 8.69961 36.4456 10.0664 34.205 13.3372C33.8928 13.793 33.4742 14.1659 32.9854 14.4235C32.4967 14.6811 31.9525 14.8158 31.4 14.8158C30.8475 14.8158 30.3033 14.6811 29.8146 14.4235C29.3258 14.1659 28.9072 13.793 28.595 13.3372C26.3544 10.0664 21.9718 8.69961 17.9768 9.74001ZM31.4 6.40121C27.167 2.85501 21.3326 1.83841 16.2632 3.15761C9.68081 4.87121 4.20001 10.5322 4.20001 19.5864C4.20001 31.5714 13.7642 41.5028 29.836 49.8192C30.3193 50.0696 30.8557 50.2003 31.4 50.2003C31.9443 50.2003 32.4807 50.0696 32.964 49.8192C49.0358 41.5028 58.6 31.5714 58.6 19.5864C58.6 10.5322 53.1192 4.87121 46.5368 3.15761C41.4708 1.83841 35.633 2.85161 31.4 6.40121Z" fill="#CE3E78"/>
<path fill-rule="evenodd" clip-rule="evenodd" d="M13.1012 4.70118C8.22899 5.88438 4.19999 9.63798 4.19999 16.1864C4.19999 24.904 11.5746 33.4346 28 41.5096C44.4254 33.4346 51.8 24.904 51.8 16.1864C51.8 9.64138 47.771 5.88438 42.8988 4.70118C37.8974 3.48398 32.284 5.05138 29.3702 9.01918C29.2123 9.23423 29.0059 9.40908 28.7679 9.5296C28.5299 9.65012 28.2668 9.71292 28 9.71292C27.7332 9.71292 27.4701 9.65012 27.2321 9.5296C26.994 9.40908 26.7877 9.23423 26.6298 9.01918C23.716 5.05138 18.1026 3.48398 13.1012 4.70118ZM28 5.41518C23.954 1.35898 17.6912 0.0839785 12.2988 1.39298C6.12099 2.89918 0.799988 7.85638 0.799988 16.1864C0.799988 27.2024 10.2044 36.6952 27.2622 44.93C27.4923 45.0409 27.7445 45.0984 28 45.0984C28.2555 45.0984 28.5076 45.0409 28.7378 44.93C45.7956 36.6952 55.2 27.2058 55.2 16.1864C55.2 7.85638 49.879 2.89918 43.7012 1.39638C38.3088 0.0873783 32.0494 1.36578 28 5.41518Z" fill="#CE3E78"/>
</svg>
