<svg width="78" height="63" viewBox="0 0 78 63" fill="none" xmlns="http://www.w3.org/2000/svg">
<path d="M70.2002 0.5C72.2097 0.500048 73.9193 1.21701 75.3555 2.66699C76.7918 4.11709 77.5024 5.84382 77.5 7.87402V55.125C77.5 57.1585 76.7892 58.8868 75.3555 60.3369C73.9222 61.7864 72.2124 62.5025 70.2002 62.5H7.7998C5.79 62.5 4.08185 61.7841 2.64844 60.3369C1.30447 58.98 0.59437 57.3761 0.508789 55.5029L0.5 55.124V7.875C0.5 5.84164 1.21232 4.11446 2.64844 2.66699C3.99504 1.30991 5.5809 0.594896 7.42773 0.508789L7.80078 0.5H70.2002ZM7.2998 55.625H70.7002V14.8438L69.9336 15.3271L39 34.8457L8.2998 15.4736V8.78125L38.7334 27.9854L39 28.1533L39.2666 27.9854L70.4668 8.29785L71.9297 7.375H7.2998V55.625Z" fill="currentColor" stroke="#CE3E78"/>
</svg>
