<svg width="68" height="68" viewBox="0 0 68 68" fill="none" xmlns="http://www.w3.org/2000/svg">
<path d="M34 19.125C35.409 19.125 36.7602 18.5653 37.7565 17.569C38.7528 16.5727 39.3125 15.2215 39.3125 13.8125C39.3125 12.4035 38.7528 11.0523 37.7565 10.056C36.7602 9.05971 35.409 8.5 34 8.5C32.591 8.5 31.2398 9.05971 30.2435 10.056C29.2472 11.0523 28.6875 12.4035 28.6875 13.8125C28.6875 15.2215 29.2472 16.5727 30.2435 17.569C31.2398 18.5653 32.591 19.125 34 19.125Z" fill="currentColor"/>
<path d="M34 19.125C36.5373 19.125 38.8025 20.7485 39.61 23.1583L39.9797 24.2633C40.0279 24.4046 40.0416 24.5554 40.0195 24.7031C39.9975 24.8508 39.9404 24.9911 39.853 25.1122C39.7656 25.2333 39.6505 25.3317 39.5172 25.3992C39.384 25.4666 39.2366 25.5012 39.0872 25.5H28.9298C28.7811 25.4993 28.6346 25.4635 28.5024 25.3955C28.3702 25.3275 28.2559 25.2292 28.1689 25.1086C28.0819 24.9881 28.0246 24.8486 28.0018 24.7017C27.9789 24.5548 27.991 24.4046 28.0373 24.2633L28.407 23.1583C28.8004 21.9822 29.554 20.9598 30.5609 20.2359C31.5678 19.5121 32.7769 19.1234 34.017 19.125H34ZM21.25 36.125C21.25 35.5614 21.4739 35.0209 21.8724 34.6224C22.2709 34.2239 22.8114 34 23.375 34H44.625C45.1886 34 45.7291 34.2239 46.1276 34.6224C46.5261 35.0209 46.75 35.5614 46.75 36.125C46.75 36.6886 46.5261 37.2291 46.1276 37.6276C45.7291 38.0261 45.1886 38.25 44.625 38.25H23.375C22.8114 38.25 22.2709 38.0261 21.8724 37.6276C21.4739 37.2291 21.25 36.6886 21.25 36.125ZM21.25 44.625C21.25 44.0614 21.4739 43.5209 21.8724 43.1224C22.2709 42.7239 22.8114 42.5 23.375 42.5H44.625C45.1886 42.5 45.7291 42.7239 46.1276 43.1224C46.5261 43.5209 46.75 44.0614 46.75 44.625C46.75 45.1886 46.5261 45.7291 46.1276 46.1276C45.7291 46.5261 45.1886 46.75 44.625 46.75H23.375C22.8114 46.75 22.2709 46.5261 21.8724 46.1276C21.4739 45.7291 21.25 45.1886 21.25 44.625ZM23.375 51C22.8114 51 22.2709 51.2239 21.8724 51.6224C21.4739 52.0209 21.25 52.5614 21.25 53.125C21.25 53.6886 21.4739 54.2291 21.8724 54.6276C22.2709 55.0261 22.8114 55.25 23.375 55.25H31.875C32.4386 55.25 32.9791 55.0261 33.3776 54.6276C33.7761 54.2291 34 53.6886 34 53.125C34 52.5614 33.7761 52.0209 33.3776 51.6224C32.9791 51.2239 32.4386 51 31.875 51H23.375Z" fill="currentColor"/>
<path fill-rule="evenodd" clip-rule="evenodd" d="M9.90244 6.97001C8.51269 9.69851 8.5127 13.26 8.5127 20.4V47.6C8.5127 54.74 8.51269 58.31 9.90244 61.03C11.1292 63.4233 13.0767 65.3708 15.4699 66.5975C18.1984 67.9873 21.7599 67.9873 28.8999 67.9873H39.0999C46.2399 67.9873 49.8099 67.9873 52.5299 66.5975C54.9267 65.3755 56.8755 63.4267 58.0974 61.03C59.4872 58.3015 59.4872 54.74 59.4872 47.6V20.4C59.4872 13.26 59.4872 9.69001 58.0974 6.97001C56.8755 4.57327 54.9267 2.62449 52.5299 1.40251C49.8014 0.0127565 46.2399 0.0127563 39.0999 0.0127563H28.8999C21.7599 0.0127563 18.1899 0.0127565 15.4699 1.40251C13.0767 2.62922 11.1292 4.57672 9.90244 6.97001ZM39.0999 4.25851H28.8999C25.2577 4.25851 22.7799 4.25851 20.8674 4.42001C19.0059 4.56876 18.0497 4.84501 17.3867 5.18501C15.7874 5.99992 14.4871 7.3002 13.6722 8.89951C13.3322 9.56251 13.0559 10.5145 12.9072 12.3803C12.7499 14.2928 12.7457 16.7578 12.7457 20.4128V47.6128C12.7457 51.255 12.7499 53.7328 12.9072 55.6453C13.0602 57.5068 13.3364 58.463 13.6722 59.126C14.4882 60.724 15.7887 62.0245 17.3867 62.8405C18.0497 63.1805 19.0059 63.4568 20.8674 63.6055C22.7799 63.7585 25.2449 63.7628 28.8999 63.7628H39.0999C42.7422 63.7628 45.2199 63.7628 47.1324 63.6055C48.9939 63.4525 49.9502 63.1763 50.6132 62.8405C52.2112 62.0245 53.5117 60.724 54.3277 59.126C54.6677 58.463 54.9439 57.5068 55.0927 55.641C55.2499 53.7285 55.2542 51.2635 55.2542 47.6085V20.4085C55.2542 16.7705 55.2499 14.2885 55.0927 12.376C54.9397 10.5188 54.6634 9.56251 54.3277 8.89951C53.5128 7.3002 52.2125 5.99992 50.6132 5.18501C49.9502 4.84501 48.9939 4.56876 47.1324 4.42001C45.2199 4.26276 42.7549 4.25851 39.0999 4.25851Z" fill="currentColor"/>
</svg>
